# xmcd
#
# Track frame offsets: 
#        150
#        14432
#        34959
#        55394
#        72978
#        98595
#        116689
#        142587
#        157281
#        177041
#        191228
#
# Disc length: 2771 seconds
#
# Revision: 0
# Processed by: cddbd v1.5.2PL0 Copyright (c) Steve Scherf et al.
# Submitted via: ExactAudioCopy v0.95b4
#
DISCID=980ad10b
DTITLE=Michael Mulvaney - Balloon Man
DYEAR=2000
DGENRE=Blues
TTITLE0=I Thought I Lost My Mojo
TTITLE1=Load's Boogie
TTITLE2=She's About A Mover
TTITLE3=Nobody Else
TTITLE4=Break The Chain
TTITLE5=Spoonful
TTITLE6=Dancin' With The Devil
TTITLE7=I Wouldn't Listen
TTITLE8=Love In Vain
TTITLE9=Million Mile Man
TTITLE10=Itchy Feet
EXTD=
EXTT0=
EXTT1=
EXTT2=
EXTT3=
EXTT4=
EXTT5=
EXTT6=
EXTT7=
EXTT8=
EXTT9=
EXTT10=
PLAYORDER=
